<svg xmlns="http://www.w3.org/2000/svg" width="164" height="32" fill="none" viewBox="0 0 164 32">
    <path fill="#fff" d="M163.076 14.72c0 5.091-3.583 8.723-8.596 8.723-1.482 0-2.839-.39-3.996-1.086v5.767c0 3.876-1.741 3.876-3.888 3.876h-1.694V10.38c0-4.337 1.719-3.828 3.84-3.828h.708v1.299c1.348-1.162 3.083-1.834 5.03-1.834 5.014-.001 8.596 3.614 8.596 8.704zm-5.681 0c0-2.146-1.555-3.739-3.669-3.739-2.115 0-3.669 1.593-3.669 3.74 0 2.147 1.555 3.74 3.669 3.74 2.101 0 3.669-1.593 3.669-3.74z"/>
    <path fill="#6ECDB8" d="M56.337 7.016h-5.773v16.41c-3.247 0-5.88-2.624-5.88-5.86V7.015h-5.771V1.761h14.954c1.364 0 2.47 1.103 2.47 2.462v2.793z"/>
    <path fill="#fff" d="M142.795 10.73v12.144h-4.849v-1.156c-1.342 1.085-3.042 1.709-4.946 1.709-5.013 0-8.596-3.645-8.596-8.723 0-5.06 3.583-8.662 8.596-8.662 1.931 0 3.655.642 5.009 1.756V6.534c2.324 0 4.786-.492 4.786 4.195zm-5.37 3.986c0-2.12-1.555-3.713-3.669-3.713-2.128 0-3.669 1.592-3.669 3.713 0 2.134 1.555 3.727 3.669 3.727s3.669-1.592 3.669-3.727z"/>
    <path fill="#6ECDB8" d="M96.108 1.716h-2.665c-2.172 0-3.442-.295-5.394 2.961l-3.682 6.192-2.368-4.206h-6.232l5.038 8.034-5.448 8.676h6.237l2.758-4.96 2.696 4.946h6.309l-5.448-8.813 8.199-12.83zM73.938 10.73v12.144h-4.849v-1.156c-1.342 1.085-3.042 1.709-4.947 1.709-5.012 0-8.595-3.645-8.595-8.723 0-5.06 3.583-8.662 8.596-8.662 1.93 0 3.655.642 5.008 1.756V6.534c2.324 0 4.787-.492 4.787 4.195zm-5.371 3.986c0-2.12-1.555-3.713-3.67-3.713-2.127 0-3.668 1.592-3.668 3.713 0 2.134 1.554 3.727 3.669 3.727 2.114 0 3.669-1.592 3.669-3.727z"/>
    <path fill="#fff" d="M117.38 23.426l-.06-11.48-5.585 9.82c-.463.816-1.6.828-2.08.023l-5.697-9.534v11.17h-5.47V1.766h3.425c.899 0 1.733.485 2.2 1.28l6.601 11.222L117.14 3.07c.465-.81 1.306-1.305 2.215-1.305h3.407l.059 21.66h-5.441z"/>
    <path fill="#6ECDB8" d="M25.416 25.39c.883-.356 1.718-.806 2.492-1.339V11.566c-.642.308-1.493.707-2.492 1.153v12.67z"/>
    <path fill="#fff" d="M21.194 26.306c.855-.039 1.688-.162 2.492-.36V13.475c-.782.334-1.62.679-2.492 1.023v11.81zM16.972 25.804c.802.233 1.634.39 2.492.465V15.156c-.817.3-1.652.593-2.492.867v9.78zM12.749 17.127v6.538c.766.587 1.602 1.09 2.492 1.495v-8.605l-.18.052c-.642.184-1.436.362-2.312.52z"/>
    <path fill="#fff" d="M20.595 26.949c7.454 0 13.518-6.044 13.518-13.475C34.113 6.044 28.049 0 20.595 0c-7.072 0-12.96 5.465-13.48 12.474.401.018.824.023 1.264.017.507-6.313 5.844-11.236 12.216-11.236 6.76 0 12.258 5.482 12.258 12.22 0 6.737-5.5 12.22-12.258 12.22-5.068 0-9.656-3.165-11.459-7.889-.445.037-.884.064-1.309.08 1.89 5.43 6.993 9.063 12.768 9.063z"/>
    <path fill="#F1A000" d="M4.097 8.562s-6.793 7.286 9.62 4.898c2.596-.378 7.401-1.863 9.131-3.036l-1.18-1.674 7.555.915s-7.22 4.03-14.162 5.687C2.401 18.377.295 14.422.067 13.596c-.68-2.473 4.03-5.034 4.03-5.034z"/>
</svg>
