<svg xmlns="http://www.w3.org/2000/svg" viewBox="0 0 680.88 134.04"><defs><style>.cls-1{fill:#2e4166;}.cls-2{fill:#4ecfba;}.cls-3{fill:#ff9d14;}</style></defs><g id="Layer_2" data-name="Layer 2"><g id="Layer_1-2" data-name="Layer 1"><path class="cls-1" d="M680.88,61.66c0,21.33-15,36.54-35.89,36.54a32,32,0,0,1-16.69-4.55v24.16C628.3,134,621,134,612.07,134H605V43.48c0-18.17,7.18-16,16-16h3v5.44a31.69,31.69,0,0,1,21-7.68C665.92,25.2,680.88,40.34,680.88,61.66Zm-23.72,0c0-9-6.5-15.66-15.33-15.66s-15.32,6.67-15.32,15.66S633,77.33,641.83,77.33,657.16,70.65,657.16,61.66Z"/><path class="cls-2" d="M235.22,29.39h-24.1V98.13h0a24.56,24.56,0,0,1-24.55-24.56V29.39h-24.1v-22h62.44a10.31,10.31,0,0,1,10.31,10.31Z"/><path class="cls-1" d="M596.2,44.94V95.81H576V91a32.4,32.4,0,0,1-20.65,7.16c-20.93,0-35.88-15.27-35.88-36.54s15-36.28,35.88-36.28a32.47,32.47,0,0,1,20.91,7.35V27.37h0C585.92,27.37,596.2,25.31,596.2,44.94Zm-22.42,16.7c0-8.88-6.5-15.55-15.33-15.55s-15.32,6.67-15.32,15.55,6.49,15.61,15.32,15.61S573.78,70.58,573.78,61.64Z"/><path class="cls-2" d="M401.27,7.19H390.15c-9.07,0-14.37-1.24-22.53,12.4L352.26,45.53l-9.89-17.62h-26l21,33.66L314.64,97.91h26l11.51-20.78,11.26,20.72h26.34L367,60.94Z"/><path class="cls-2" d="M308.7,44.94V95.81H288.46V91a32.4,32.4,0,0,1-20.65,7.16c-20.93,0-35.89-15.27-35.89-36.54s15-36.28,35.89-36.28a32.47,32.47,0,0,1,20.91,7.35V27.37h0C298.42,27.37,308.7,25.31,308.7,44.94Zm-22.42,16.7c0-8.88-6.49-15.55-15.32-15.55s-15.32,6.67-15.32,15.55S262.13,77.25,271,77.25,286.28,70.58,286.28,61.64Z"/><path class="cls-1" d="M490.08,98.13,489.83,50,466.51,91.17a5,5,0,0,1-8.68.1L434,51.33v46.8H411.2V7.39h14.3a10.67,10.67,0,0,1,9.19,5.36l27.56,47,26.83-46.9a10.68,10.68,0,0,1,9.24-5.47h14.23l.25,90.74Z"/><path class="cls-2" d="M106.12,106.35a53.64,53.64,0,0,0,10.4-5.6V48.45c-2.68,1.29-6.23,2.95-10.4,4.83Z"/><path class="cls-1" d="M88.49,110.19a53.88,53.88,0,0,0,10.4-1.5V56.44c-3.26,1.4-6.76,2.84-10.4,4.28Z"/><path class="cls-1" d="M70.86,108.08a53.25,53.25,0,0,0,10.4,2V63.49c-3.41,1.26-6.9,2.48-10.4,3.63Z"/><path class="cls-1" d="M53.23,71.74V99.13a53.9,53.9,0,0,0,10.4,6.26v-36l-.74.22C60.2,70.33,56.89,71.08,53.23,71.74Z"/><path class="cls-1" d="M86,112.88A56.44,56.44,0,1,0,29.71,52.25c1.67.07,3.44.1,5.27.07a51.23,51.23,0,1,1,3.17,22.26c-1.86.15-3.7.27-5.47.34A56.34,56.34,0,0,0,86,112.88Z"/><path class="cls-3" d="M17.11,35.86S-11.26,66.38,57.28,56.38c10.83-1.58,30.89-7.8,38.12-12.72l-4.93-7L122,40.49S91.87,57.36,62.89,64.31C10,77,1.23,60.41.28,57-2.56,46.59,17.11,35.86,17.11,35.86Z"/></g></g></svg>